<svg width="200" height="100" xmlns="http://www.w3.org/2000/svg">

 <g>
  <title>Layer 1</title>
  <path transform="rotate(-0.836219 141.765 49.7697)" stroke="null" fill="#fc246c" d="m141.76528,3.18234c28.65715,0 51.88807,20.85859 51.88807,46.58814c0,8.79254 -2.74637,17.00645 -7.47214,24.02022l7.47214,19.6113l-20.8033,-6.39437c-8.66897,5.84414 -19.40993,9.34938 -31.08477,9.34938c-28.65718,0 -51.88808,-20.85861 -51.88808,-46.58653c0,-25.72955 23.2309,-46.58815 51.88808,-46.58815l0,0.00001z" id="svg_121"/>
  <path stroke="null" fill="#2655ad" stroke-width="0" d="m21.16936,26.19424l81.38744,0l0,0c10.66198,0 19.30521,11.60359 19.30521,25.91735c0,14.31375 -8.64323,25.91733 -19.30521,25.91733l-81.38744,0l0,0c-10.66197,0 -19.30522,-11.60358 -19.30522,-25.91733c0,-14.31375 8.64325,-25.91735 19.30522,-25.91735z" id="svg_122"/>
 </g>
</svg>