<svg width="1000" height="800" xmlns="http://www.w3.org/2000/svg">
 <defs>
  <linearGradient spreadMethod="pad" y2="0.73828" x2="0.30078" y1="0.25" x1="0.73438" id="svg_51">
   <stop offset="0" stop-opacity="0.99609" stop-color="#fc246c"/>
   <stop offset="1" stop-opacity="0.99219" stop-color="#2655ad"/>
  </linearGradient>
 </defs>
 <g>
  <title>Layer 1</title>
  <rect stroke="null" id="svg_116" height="109.5649" width="203.47777" y="663.35434" x="8.6461" stroke-width="0" fill="#2655ad"/>
  <rect stroke="null" id="svg_75" height="64.34763" width="93.04325" y="378.25925" x="33.04239" stroke-width="0" fill="#2655ad"/>
  <path stroke="null" id="svg_62" d="m357.80901,200.90995l0,0c0,-7.62864 6.823,-13.81286 15.23959,-13.81286l6.92709,0l0,0l33.25,0l62.34375,0c4.0418,0 7.91804,1.45528 10.77602,4.04569c2.85796,2.59041 4.46357,6.10377 4.46357,9.76717l0,34.53214l0,0l0,20.71929l0,0c0,7.62863 -6.82299,13.81285 -15.23959,13.81285l-62.34375,0l-43.43702,35.12289l10.18702,-35.12289l-6.92709,0c-8.41659,0 -15.23958,-6.18422 -15.23958,-13.81285l0,0l0,-20.71929l0,0l-0.00001,-34.53214z" fill="#0b357a"/>
  <path stroke="null" id="svg_57" d="m196.93983,202.64909l0,0c0,-7.62864 6.823,-13.81286 15.23959,-13.81286l6.92709,0l0,0l33.25,0l62.34375,0c4.0418,0 7.91804,1.45528 10.77602,4.04569c2.85796,2.59041 4.46357,6.10377 4.46357,9.76717l0,34.53214l0,0l0,20.71929l0,0c0,7.62863 -6.82299,13.81285 -15.23959,13.81285l-62.34375,0l-43.43702,35.12289l10.18702,-35.12289l-6.92709,0c-8.41659,0 -15.23958,-6.18422 -15.23958,-13.81285l0,0l0,-20.71929l0,0l-0.00001,-34.53214z" fill="#dbdbdb"/>
  <path stroke="null" id="svg_35" d="m590.85191,26.12777l0,0c0,-7.62864 6.823,-13.81286 15.23959,-13.81286l6.92709,0l0,0l33.25,0l62.34375,0c4.0418,0 7.91804,1.45528 10.77602,4.04569c2.85796,2.59041 4.46357,6.10377 4.46357,9.76717l0,34.53214l0,0l0,20.71929l0,0c0,7.62863 -6.82299,13.81285 -15.23959,13.81285l-62.34375,0l-43.43702,35.12289l10.18702,-35.12289l-6.92709,0c-8.41659,0 -15.23958,-6.18422 -15.23958,-13.81285l0,0l0,-20.71929l0,0l-0.00001,-34.53214z" fill="#0b357a"/>
  <path stroke="null" id="svg_18" d="m36.94026,44.3886l0,0c0,-7.62864 6.823,-13.81286 15.23959,-13.81286l6.92709,0l0,0l33.25,0l62.34375,0c4.0418,0 7.91804,1.45528 10.77602,4.04569c2.85796,2.59041 4.46357,6.10377 4.46357,9.76717l0,34.53214l0,0l0,20.71929l0,0c0,7.62863 -6.82299,13.81285 -15.23959,13.81285l-62.34375,0l-43.43702,35.12289l10.18702,-35.12289l-6.92709,0c-8.41659,0 -15.23958,-6.18422 -15.23958,-13.81285l0,0l0,-20.71929l0,0l-0.00001,-34.53214z" fill="#fc246c"/>
  <path stroke="null" id="svg_19" d="m29.98374,38.30164l0,0c0,-7.62864 6.823,-13.81286 15.23959,-13.81286l6.92709,0l0,0l33.25,0l62.34375,0c4.0418,0 7.91804,1.45528 10.77602,4.04569c2.85796,2.59041 4.46357,6.10377 4.46357,9.76717l0,34.53214l0,0l0,20.71929l0,0c0,7.62863 -6.82299,13.81285 -15.23959,13.81285l-62.34375,0l-43.43702,35.12289l10.18702,-35.12289l-6.92709,0c-8.41659,0 -15.23958,-6.18422 -15.23958,-13.81285l0,0l0,-20.71929l0,0l-0.00001,-34.53214z" fill="#0b357a"/>
  <text transform="rotate(0.261796 115.168 77.209) matrix(2.22522 0 0 2.44008 261.996 -322.621)" stroke="null" font-style="normal" font-weight="normal" xml:space="preserve" text-anchor="start" font-family="'Nunito Black'" font-size="24" stroke-width="0" id="svg_10" y="171.67668" x="-85.70315" fill="#ffffff">ask</text>
  <path stroke="null" id="svg_26" d="m212.592,51.34512l0,0c0,-7.62864 6.823,-13.81286 15.23958,-13.81286l6.92709,0l0,0l33.25,0l62.34375,0c4.0418,0 7.91804,1.45527 10.77602,4.04569c2.85797,2.59041 4.46357,6.10377 4.46357,9.76717l0,34.53214l0,0l0,20.71928l0,0c0,7.62864 -6.82299,13.81286 -15.23958,13.81286l-62.34375,0l-43.43703,35.12288l10.18702,-35.12288l-6.92708,0c-8.41659,0 -15.23958,-6.18422 -15.23958,-13.81286l0,0l0,-20.71928l0,0l-0.00001,-34.53214z" fill="#0b357a"/>
  <path stroke="null" id="svg_27" d="m206.50506,44.38862l0,0c0,-7.62864 6.823,-13.81286 15.23959,-13.81286l6.92709,0l0,0l33.25,0l62.34375,0c4.0418,0 7.91804,1.45528 10.77602,4.04569c2.85796,2.59041 4.46357,6.10377 4.46357,9.76717l0,34.53214l0,0l0,20.71929l0,0c0,7.62863 -6.82299,13.81285 -15.23959,13.81285l-62.34375,0l-43.43702,35.12289l10.18702,-35.12289l-6.92709,0c-8.41659,0 -15.23958,-6.18422 -15.23958,-13.81285l0,0l0,-20.71929l0,0l-0.00001,-34.53214z" fill="#fc246c"/>
  <text transform="rotate(0.261796 290.824 83.2872) matrix(2.22522 0 0 2.44008 261.996 -322.621)" stroke="null" font-style="normal" font-weight="normal" xml:space="preserve" text-anchor="start" font-family="'Nunito Black'" font-size="24" stroke-width="0" id="svg_29" y="174.17124" x="-6.76635" fill="#ffffff">ask</text>
  <text transform="matrix(1.10931 0 0 1.253 -81.7709 90.1284)" font-style="normal" font-weight="normal" xml:space="preserve" text-anchor="start" font-family="'Nunito Black'" font-size="24" stroke-width="0" id="svg_8" y="-22.55348" x="266.38296" fill="#0b357a">letme</text>
  <text transform="matrix(1.10931 0 0 1.253 -81.7709 90.1284)" font-style="normal" font-weight="normal" xml:space="preserve" text-anchor="start" font-family="'Nunito Black'" font-size="24" stroke-width="0" id="svg_30" y="-28.10536" x="105.68809" fill="#fc246c">letme</text>
  <path stroke="null" id="svg_31" d="m383.02636,25.25823l0,0c0,-7.62864 6.823,-13.81286 15.23959,-13.81286l6.92709,0l0,0l33.25,0l62.34375,0c4.0418,0 7.91804,1.45528 10.77602,4.04569c2.85796,2.59041 4.46357,6.10377 4.46357,9.76717l0,34.53214l0,0l0,20.71929l0,0c0,7.62863 -6.82299,13.81285 -15.23959,13.81285l-62.34375,0l-43.43702,35.12289l10.18702,-35.12289l-6.92709,0c-8.41659,0 -15.23958,-6.18422 -15.23958,-13.81285l0,0l0,-20.71929l0,0l-0.00001,-34.53214z" fill="#fc246c"/>
  <path stroke="null" id="svg_28" d="m425.63493,70.47548l0,0c0,-7.62864 6.823,-13.81286 15.23959,-13.81286l6.92709,0l0,0l33.25,0l62.34375,0c4.0418,0 7.91804,1.45528 10.77602,4.04569c2.85796,2.59041 4.46357,6.10377 4.46357,9.76717l0,34.53214l0,0l0,20.71929l0,0c0,7.62863 -6.82299,13.81285 -15.23959,13.81285l-62.34375,0l-43.43702,35.12289l10.18702,-35.12289l-6.92709,0c-8.41659,0 -15.23958,-6.18422 -15.23958,-13.81285l0,0l0,-20.71929l0,0l-0.00001,-34.53214z" fill="#0b357a"/>
  <text transform="matrix(1.10931 0 0 1.253 -81.7709 90.1284)" font-style="normal" font-weight="normal" xml:space="preserve" text-anchor="start" font-family="'Nunito Black'" font-size="24" stroke-width="0" id="svg_32" y="-35.0452" x="442.75538" fill="#0b357a">letme</text>
  <text transform="rotate(0.261796 491.698 96.3192) matrix(2.22522 0 0 2.44008 261.996 -322.621)" stroke="null" font-style="normal" font-weight="normal" xml:space="preserve" text-anchor="start" font-family="'Nunito Black'" font-size="24" stroke-width="0" id="svg_33" y="179.51674" x="83.50295" fill="#ffffff">ask</text>
  <path stroke="null" id="svg_34" d="m636.06922,68.73638l0,0c0,-7.62864 6.823,-13.81286 15.23959,-13.81286l6.92709,0l0,0l33.25,0l62.34375,0c4.0418,0 7.91804,1.45528 10.77602,4.04569c2.85796,2.59041 4.46357,6.10377 4.46357,9.76717l0,34.53214l0,0l0,20.71929l0,0c0,7.62863 -6.82299,13.81285 -15.23959,13.81285l-62.34375,0l-43.43702,35.12289l10.18702,-35.12289l-6.92709,0c-8.41659,0 -15.23958,-6.18422 -15.23958,-13.81285l0,0l0,-20.71929l0,0l-0.00001,-34.53214z" fill="#fc246c"/>
  <text transform="matrix(1.10931 0 0 1.253 -81.7709 90.1284)" font-style="normal" font-weight="normal" xml:space="preserve" text-anchor="start" font-family="'Nunito Black'" font-size="24" stroke-width="0" id="svg_36" y="-33.65723" x="630.10207" fill="#fc246c">letme</text>
  <text transform="rotate(0.261796 703.004 95.4599) matrix(2.22522 0 0 2.44008 261.996 -322.621)" stroke="null" font-style="normal" font-weight="normal" xml:space="preserve" text-anchor="start" font-family="'Nunito Black'" font-size="24" stroke-width="0" id="svg_37" y="179.16038" x="178.46158" fill="#ffffff">ask</text>
  <path stroke="null" id="svg_42" d="m43.89676,193.95348l0,0c0,-7.62864 6.823,-13.81286 15.23959,-13.81286l6.92709,0l0,0l33.25,0l62.34375,0c4.0418,0 7.91804,1.45528 10.77602,4.04569c2.85796,2.59041 4.46357,6.10377 4.46357,9.76717l0,34.53214l0,0l0,20.71929l0,0c0,7.62863 -6.82299,13.81285 -15.23959,13.81285l-62.34375,0l-43.43702,35.12289l10.18702,-35.12289l-6.92709,0c-8.41659,0 -15.23958,-6.18422 -15.23958,-13.81285l0,0l0,-20.71929l0,0l-0.00001,-34.53214z" fill="url(#svg_51)"/>
  <text transform="rotate(0.261796 129.104 231.125) matrix(2.22522 0 0 2.44008 261.996 -322.621)" stroke="null" font-style="normal" font-weight="normal" xml:space="preserve" text-anchor="start" font-family="'Nunito Black'" font-size="24" stroke-width="0" id="svg_41" y="234.75358" x="-79.45072" fill="#ffffff">ask</text>
  <text transform="matrix(1.10931 0 0 1.253 -81.7709 90.1284)" font-style="normal" font-weight="normal" xml:space="preserve" text-anchor="start" font-family="'Nunito Black'" font-size="24" stroke-width="0" id="svg_47" y="96.81194" x="122.14951" fill="#0b357a">letme</text>
  <path stroke="null" id="svg_54" d="m193.46161,196.56218l0,0c0,-7.62864 6.823,-13.81286 15.23959,-13.81286l6.92709,0l0,0l33.25,0l62.34375,0c4.0418,0 7.91804,1.45528 10.77602,4.04569c2.85796,2.59041 4.46357,6.10377 4.46357,9.76717l0,34.53214l0,0l0,20.71929l0,0c0,7.62863 -6.82299,13.81285 -15.23959,13.81285l-62.34375,0l-43.43702,35.12289l10.18702,-35.12289l-6.92709,0c-8.41659,0 -15.23958,-6.18422 -15.23958,-13.81285l0,0l0,-20.71929l0,0l-0.00001,-34.53214z" fill="url(#svg_51)"/>
  <text transform="rotate(0.261796 280.411 233.72) matrix(2.22522 0 0 2.44008 261.996 -322.621)" stroke="null" font-style="normal" font-weight="normal" xml:space="preserve" text-anchor="start" font-family="'Nunito Black'" font-size="24" stroke-width="0" id="svg_55" y="235.82268" x="-11.45566" fill="#ffffff">ask</text>
  <text transform="matrix(1.10931 0 0 1.253 -81.7709 90.1284)" font-style="normal" font-weight="normal" xml:space="preserve" text-anchor="start" font-family="'Nunito Black'" font-size="24" stroke-width="0" id="svg_56" y="97.50592" x="254.6248" fill="#0b357a">letme</text>
  <path stroke="null" id="svg_59" d="m353.46122,195.6926l0,0c0,-7.62864 6.823,-13.81286 15.23959,-13.81286l6.92709,0l0,0l33.25,0l62.34375,0c4.0418,0 7.91804,1.45528 10.77602,4.04569c2.85796,2.59041 4.46357,6.10377 4.46357,9.76717l0,34.53214l0,0l0,20.71929l0,0c0,7.62863 -6.82299,13.81285 -15.23959,13.81285l-62.34375,0l-43.43702,35.12289l10.18702,-35.12289l-6.92709,0c-8.41659,0 -15.23958,-6.18422 -15.23958,-13.81285l0,0l0,-20.71929l0,0l-0.00001,-34.53214z" fill="url(#svg_51)"/>
  <text transform="rotate(0.261796 440.396 235.471) matrix(2.22522 0 0 2.44008 261.996 -322.621)" stroke="null" font-style="normal" font-weight="normal" xml:space="preserve" text-anchor="start" font-family="'Nunito Black'" font-size="24" stroke-width="0" id="svg_60" y="236.53541" x="60.44717" fill="#ffffff">ask</text>
  <text transform="matrix(1.10931 0 0 1.253 -81.7709 90.1284)" font-style="normal" font-weight="normal" xml:space="preserve" text-anchor="start" font-family="'Nunito Black'" font-size="24" stroke-width="0" id="svg_61" y="96.81193" x="398.85824" fill="#0b357a">letme</text>
  <path stroke="null" id="svg_63" d="m530.85207,205.25777l0,0c0,-7.62864 6.823,-13.81286 15.23959,-13.81286l6.92709,0l0,0l33.25,0l62.34375,0c4.0418,0 7.91804,1.45528 10.77602,4.04569c2.85796,2.59041 4.46357,6.10377 4.46357,9.76717l0,34.53214l0,0l0,20.71929l0,0c0,7.62863 -6.82299,13.81285 -15.23959,13.81285l-62.34375,0l-43.43702,35.12289l10.18702,-35.12289l-6.92709,0c-8.41659,0 -15.23958,-6.18422 -15.23958,-13.81285l0,0l0,-20.71929l0,0l-0.00001,-34.53214z" fill="#0b357a"/>
  <path stroke="null" id="svg_64" d="m526.50428,200.04042l0,0c0,-7.62864 6.823,-13.81286 15.23959,-13.81286l6.92709,0l0,0l33.25,0l62.34375,0c4.0418,0 7.91804,1.45528 10.77602,4.04569c2.85796,2.59041 4.46357,6.10377 4.46357,9.76717l0,34.53214l0,0l0,20.71929l0,0c0,7.62863 -6.82299,13.81285 -15.23959,13.81285l-62.34375,0l-43.43702,35.12289l10.18702,-35.12289l-6.92709,0c-8.41659,0 -15.23958,-6.18422 -15.23958,-13.81285l0,0l0,-20.71929l0,0l-0.00001,-34.53214z" fill="url(#svg_51)"/>
  <text transform="rotate(0.202479 633.2 199.654) matrix(0.919098 0 0 0.98081 381.076 46.4859)" stroke="null" font-style="normal" font-weight="normal" xml:space="preserve" text-anchor="start" font-family="'Nunito Black'" font-size="24" stroke-width="0" id="svg_65" y="164.39503" x="254.59442" fill="#ffffff">ask</text>
  <text transform="rotate(-89.9256 514.192 227.779) matrix(1.10931 0 0 1.253 -81.7709 90.1284)" font-style="normal" font-weight="normal" xml:space="preserve" text-anchor="start" font-family="'Nunito Black'" font-size="24" stroke-width="0" id="svg_66" y="117.63149" x="503.89782" fill="#0b357a">letme</text>
  <path transform="rotate(-0.426062 131.208 358.829)" stroke="null" id="svg_72" d="m131.20804,314.86634c-32.13231,0 -58.18036,19.68321 -58.18036,43.96292c0,8.29709 3.07942,16.04815 8.37825,22.6667l-8.37825,18.50621l23.32604,-6.03405c9.72023,5.51482 21.7637,8.82256 34.85432,8.82256c32.13235,0 58.18037,-19.68323 58.18037,-43.96142c0,-24.27971 -26.04803,-43.96293 -58.18037,-43.96293l0,0.00001z" fill="#fc246c"/>
  <text transform="matrix(1.10931 0 0 1.253 -81.7709 90.1284)" font-style="normal" font-weight="normal" xml:space="preserve" text-anchor="start" font-family="'Nunito Black'" font-size="24" stroke-width="0" id="svg_73" y="252.26455" x="104.9042" fill="#ffffff">let</text>
  <text transform="rotate(0.261796 131.675 357.489) matrix(2.14219 0 0 2.12119 155.005 -205.139)" stroke="null" font-style="normal" font-weight="normal" xml:space="preserve" text-anchor="start" font-family="'Nunito Black'" font-size="24" stroke-width="0" id="svg_74" y="272.99135" x="-30.61573" fill="#ffffff">ask</text>
  <text transform="matrix(1.10931 0 0 1.2997 -81.7709 75.3761)" font-style="normal" font-weight="normal" xml:space="preserve" text-anchor="start" font-family="'Nunito Black'" font-size="24" stroke-width="0" id="svg_83" y="267.54059" x="104.9042" fill="#ffffff">me</text>
  <rect stroke="null" id="svg_86" height="109.5649" width="187.82564" y="339.12891" x="246.08534" stroke-width="0" fill="#2655ad"/>
  <text transform="matrix(2.58183 0 0 2.77068 -745.267 -256.965)" font-style="normal" font-weight="normal" xml:space="preserve" text-anchor="start" font-family="'Nunito Black'" font-size="24" stroke-width="0" id="svg_87" y="234.64061" x="386.93274" fill="#ffffff">let</text>
  <text transform="matrix(2.53403 0 0 2.77475 -723.731 -285.126)" font-style="normal" font-weight="normal" xml:space="preserve" text-anchor="start" font-family="'Nunito Black'" font-size="24" stroke-width="0" id="svg_88" y="260.54423" x="385.00131" fill="#ffffff">me</text>
  <path transform="rotate(-10.3056 386.86 387.089)" stroke="null" id="svg_89" d="m386.8596,346.42443c-23.97934,0 -43.41818,18.2069 -43.41818,40.66555c0,7.67477 2.29808,14.84449 6.25243,20.96662l-6.25243,17.11818l17.4075,-5.58148c7.2539,5.10119 16.24157,8.16084 26.01069,8.16084c23.97937,0 43.4182,-18.20693 43.4182,-40.66417c0,-22.45865 -19.43883,-40.66556 -43.4182,-40.66556l0,0.00001z" fill="#fc246c"/>
  <rect stroke="null" id="svg_90" height="39.1303" width="45.21728" y="402.60702" x="158.25947" stroke-width="0" fill="#2655ad"/>
  <path transform="rotate(-0.426062 212.947 396.654)" stroke="null" id="svg_91" d="m212.94697,372.04358c-16.20417,0 -29.34008,11.01906 -29.34008,24.61134c0,4.64487 1.55294,8.98408 4.22511,12.68928l-4.22511,10.36015l11.76321,-3.37798c4.90187,3.08731 10.97533,4.93904 17.57686,4.93904c16.20419,0 29.34009,-11.01907 29.34009,-24.61049c0,-13.59228 -13.13589,-24.61135 -29.34009,-24.61135l0,0.00001z" fill="#fc246c"/>
  <rect stroke="null" id="svg_92" height="104.34753" width="99.1302" y="339.1289" x="439.9979" stroke-width="0" fill="#2655ad"/>
  <path transform="rotate(13.8961 584.25 372.307)" stroke="null" id="svg_93" d="m584.25042,331.64186c-23.97934,0 -43.41818,18.20691 -43.41818,40.66556c0,7.67477 2.29807,14.84448 6.25243,20.96662l-6.25243,17.11818l17.4075,-5.58148c7.2539,5.10119 16.24157,8.16084 26.01068,8.16084c23.97937,0 43.4182,-18.20693 43.4182,-40.66416c0,-22.45865 -19.43883,-40.66557 -43.4182,-40.66557l0,0.00001z" fill="#fc246c"/>
  <text transform="rotate(0.261796 386.022 384.36) matrix(1.29339 0 0 1.59631 149.675 -114.436)" stroke="null" font-style="normal" font-weight="normal" xml:space="preserve" text-anchor="start" font-family="'Nunito Black'" font-size="24" stroke-width="0" id="svg_94" y="320.54452" x="163.0093" fill="#ffffff">ask</text>
  <text transform="matrix(2.58183 0 0 2.77068 -745.267 -256.965)" font-style="normal" font-weight="normal" xml:space="preserve" text-anchor="start" font-family="'Nunito Black'" font-size="24" stroke-width="0" id="svg_95" y="234.32676" x="461.7026" fill="#ffffff">let</text>
  <text transform="matrix(2.53403 0 0 2.77475 -723.731 -285.126)" font-style="normal" font-weight="normal" xml:space="preserve" text-anchor="start" font-family="'Nunito Black'" font-size="24" stroke-width="0" id="svg_96" y="260.23084" x="461.52465" fill="#ffffff">me</text>
  <text transform="rotate(0.261796 582.969 368.808) matrix(1.1078 0 0 1.16486 335.341 29.8056)" stroke="null" font-style="normal" font-weight="normal" xml:space="preserve" text-anchor="start" font-family="'Nunito Black'" font-size="24" stroke-width="0" id="svg_97" y="299.05564" x="203.81189" fill="#ffffff">ask</text>
  <path transform="rotate(-0.836219 737.277 312.966)" stroke="null" id="svg_99" d="m737.27723,271.29006c27.85928,0 50.44339,18.65947 50.44339,41.67636c0,7.86554 -2.66991,15.21346 -7.2641,21.48777l7.2641,17.54368l-20.22408,-5.72021c-8.42762,5.22799 -18.86952,8.36368 -30.21931,8.36368c-27.85932,0 -50.44342,-18.65949 -50.44342,-41.67492c0,-23.01689 22.5841,-41.67637 50.44342,-41.67637l0,0.00001z" fill="#fc246c"/>
  <path stroke="null" id="svg_100" d="m622.04286,295.35931l71.36253,0l0,0c9.34869,0 16.92729,8.95429 16.92729,19.99996c0,11.04567 -7.5786,19.99995 -16.92729,19.99995l-71.36253,0l0,0c-9.34868,0 -16.9273,-8.95428 -16.9273,-19.99995c0,-11.04567 7.57861,-19.99996 16.9273,-19.99996z" stroke-width="0" fill="#2655ad"/>
  <text transform="matrix(1.10931 0 0 1.253 -81.7709 90.1284)" font-style="normal" font-weight="normal" xml:space="preserve" text-anchor="start" font-family="'Nunito Black'" font-size="24" stroke-width="0" id="svg_102" y="187.02996" x="634.02145" fill="#ffffff">letme</text>
  <text transform="rotate(0.261796 739.069 310.591) matrix(1.4533 0 0 1.59631 275.694 -114.452)" stroke="null" font-style="normal" font-weight="normal" xml:space="preserve" text-anchor="start" font-family="'Nunito Black'" font-size="24" stroke-width="0" id="svg_103" y="274.2422" x="299.11501" fill="#ffffff">ask</text>
  <path transform="rotate(-0.836219 738.147 412.965)" stroke="null" id="svg_107" d="m738.14681,371.28982c27.85928,0 50.44339,18.65946 50.44339,41.67635c0,7.86554 -2.6699,15.21346 -7.26409,21.48778l7.26409,17.54367l-20.22408,-5.7202c-8.42762,5.22799 -18.86952,8.36368 -30.21931,8.36368c-27.85932,0 -50.44342,-18.65949 -50.44342,-41.67493c0,-23.01689 22.5841,-41.67636 50.44342,-41.67636l0,0.00001z" fill="#fc246c"/>
  <path stroke-width="2" stroke="#2655ad" id="svg_108" d="m632.47764,395.35907l71.36253,0l0,0c9.3487,0 16.92729,8.95429 16.92729,19.99996c0,11.04567 -7.57859,19.99995 -16.92729,19.99995l-71.36253,0l0,0c-9.34869,0 -16.9273,-8.95428 -16.9273,-19.99995c0,-11.04567 7.57861,-19.99996 16.9273,-19.99996z" fill="#ffffff"/>
  <text transform="matrix(1.10931 0 0 1.253 -81.7709 90.1284)" font-style="normal" font-weight="normal" xml:space="preserve" text-anchor="start" font-family="'Nunito Black'" font-size="24" stroke-width="0" id="svg_109" y="266.83823" x="644.99576" fill="#0b357a">letme</text>
  <text transform="rotate(0.261796 746.452 412.289) matrix(1.1078 0 0 1.16486 335.341 29.8056)" stroke="null" font-style="normal" font-weight="normal" xml:space="preserve" text-anchor="start" font-family="'Nunito Black'" font-size="24" stroke-width="0" id="svg_110" y="336.38043" x="351.38173" fill="#ffffff">ask</text>
  <path transform="rotate(-0.836219 147.728 715.452)" stroke="null" id="svg_117" d="m147.7287,673.77617c27.85928,0 50.4434,18.65947 50.4434,41.67636c0,7.86554 -2.66991,15.21346 -7.2641,21.48777l7.2641,17.54368l-20.22409,-5.72021c-8.42761,5.22799 -18.86952,8.36368 -30.21931,8.36368c-27.85931,0 -50.44341,-18.65949 -50.44341,-41.67492c0,-23.01689 22.5841,-41.67637 50.44341,-41.67637l0,0.00001z" fill="#fc246c"/>
  <path stroke-opacity="0" stroke="#000000" id="svg_118" d="m32.49433,697.84542l71.36254,0l0,0c9.34869,0 16.92729,8.95429 16.92729,19.99996c0,11.04567 -7.5786,19.99995 -16.92729,19.99995l-71.36254,0l0,0c-9.34868,0 -16.9273,-8.95428 -16.9273,-19.99995c0,-11.04567 7.57862,-19.99996 16.9273,-19.99996z" fill="#ffffff"/>
  <text transform="matrix(1.10931 0 0 1.253 -81.7709 90.1284)" font-style="normal" font-weight="normal" xml:space="preserve" text-anchor="start" font-family="'Nunito Black'" font-size="24" stroke-width="0" id="svg_119" y="508.24793" x="102.5663" fill="#2655ad">letme</text>
  <text transform="rotate(0.261796 149.521 713.429) matrix(1.4533 0 0 1.59631 275.694 -114.452)" stroke="null" font-style="normal" font-weight="normal" xml:space="preserve" text-anchor="start" font-family="'Nunito Black'" font-size="24" stroke-width="0" id="svg_120" y="526.37751" x="-106.54696" fill="#ffffff">ask</text>
  <path transform="rotate(-0.836219 354.684 713.713)" stroke="null" id="svg_121" d="m354.68472,672.03704c27.85928,0 50.4434,18.65947 50.4434,41.67636c0,7.86554 -2.66991,15.21346 -7.2641,21.48777l7.2641,17.54368l-20.22409,-5.72021c-8.42761,5.22799 -18.86952,8.36368 -30.21931,8.36368c-27.85931,0 -50.44341,-18.65949 -50.44341,-41.67492c0,-23.01689 22.5841,-41.67637 50.44341,-41.67637l0,0.00001z" fill="#fc246c"/>
  <path stroke="null" id="svg_122" d="m239.45035,696.10629l71.36254,0l0,0c9.34869,0 16.92729,8.95429 16.92729,19.99996c0,11.04567 -7.5786,19.99995 -16.92729,19.99995l-71.36254,0l0,0c-9.34868,0 -16.9273,-8.95428 -16.9273,-19.99995c0,-11.04567 7.57862,-19.99996 16.9273,-19.99996z" stroke-width="0" fill="#2655ad"/>
  <text transform="matrix(1.10931 0 0 1.253 -81.7709 90.1284)" font-style="normal" font-weight="normal" xml:space="preserve" text-anchor="start" font-family="'Nunito Black'" font-size="24" stroke-width="0" id="svg_123" y="506.85995" x="289.12914" fill="#ffffff">letme</text>
  <text transform="rotate(0.261796 356.466 711.688) matrix(1.4533 0 0 1.59631 275.694 -114.452)" stroke="null" font-style="normal" font-weight="normal" xml:space="preserve" text-anchor="start" font-family="'Nunito Black'" font-size="24" stroke-width="0" id="svg_124" y="525.28803" x="35.85724" fill="#ffffff">ask</text>
  <rect stroke="null" id="svg_125" height="109.5649" width="203.47777" y="658.13696" x="436.47115" stroke-width="0" fill="#fc246c"/>
  <path transform="rotate(-0.836219 576.423 711.104)" stroke="null" id="svg_126" d="m576.42331,669.42835c27.85928,0 50.4434,18.65947 50.4434,41.67636c0,7.86554 -2.66991,15.21346 -7.2641,21.48777l7.2641,17.54368l-20.22409,-5.72021c-8.42761,5.22799 -18.86952,8.36368 -30.21931,8.36368c-27.85931,0 -50.44341,-18.65949 -50.44341,-41.67492c0,-23.01689 22.5841,-41.67637 50.44341,-41.67637l0,0.00001z" fill="#2655ad"/>
  <path stroke="null" id="svg_127" d="m458.55736,693.4976l71.36254,0l0,0c9.34869,0 16.92729,8.95429 16.92729,19.99996c0,11.04567 -7.5786,19.99995 -16.92729,19.99995l-71.36254,0l0,0c-9.34868,0 -16.9273,-8.95428 -16.9273,-19.99995c0,-11.04567 7.57862,-19.99996 16.9273,-19.99996z" stroke-width="0" fill="#ffffff"/>
  <text transform="matrix(1.10931 0 0 1.253 -81.7709 90.1284)" font-style="normal" font-weight="normal" xml:space="preserve" text-anchor="start" font-family="'Nunito Black'" font-size="24" stroke-width="0" id="svg_128" y="504.77799" x="489.01788" fill="#fc246c">letme</text>
  <text transform="rotate(0.261796 577.345 709.082) matrix(1.4533 0 0 1.59631 275.694 -114.452)" stroke="null" font-style="normal" font-weight="normal" xml:space="preserve" text-anchor="start" font-family="'Nunito Black'" font-size="24" stroke-width="0" id="svg_129" y="523.65383" x="187.82958" fill="#ffffff">ask</text>
  <rect stroke="null" id="svg_130" height="109.5649" width="203.47777" y="658.13696" x="654.89218" stroke-width="0" fill="#000000"/>
  <path transform="rotate(-0.836219 797.476 709.35)" stroke="null" id="svg_131" d="m797.47592,667.67396c27.85928,0 50.4434,18.65947 50.4434,41.67636c0,7.86554 -2.66991,15.21346 -7.2641,21.48777l7.2641,17.54368l-20.22409,-5.72021c-8.42761,5.22799 -18.86952,8.36368 -30.21931,8.36368c-27.85931,0 -50.44341,-18.65949 -50.44341,-41.67492c0,-23.01689 22.5841,-41.67637 50.44341,-41.67637l0,0.00001z" fill="#fc246c"/>
  <path stroke="null" id="svg_132" d="m679.60997,691.74321l71.36254,0l0,0c9.34869,0 16.92729,8.95429 16.92729,19.99996c0,11.04567 -7.5786,19.99995 -16.92729,19.99995l-71.36254,0l0,0c-9.34868,0 -16.9273,-8.95428 -16.9273,-19.99995c0,-11.04567 7.57862,-19.99996 16.9273,-19.99996z" stroke-width="0" fill="#2655ad"/>
  <text transform="matrix(1.10931 0 0 1.253 -81.7709 90.1284)" font-style="normal" font-weight="normal" xml:space="preserve" text-anchor="start" font-family="'Nunito Black'" font-size="24" stroke-width="0" id="svg_133" y="503.37785" x="688.28824" fill="#ffffff">letme</text>
  <text transform="rotate(0.261796 798.382 707.323) matrix(1.4533 0 0 1.59631 275.694 -114.452)" stroke="null" font-style="normal" font-weight="normal" xml:space="preserve" text-anchor="start" font-family="'Nunito Black'" font-size="24" stroke-width="0" id="svg_134" y="522.55481" x="339.93349" fill="#ffffff">ask</text>
  <rect stroke="null" id="svg_135" height="109.5649" width="203.47777" y="547.56488" x="12.15487" stroke-width="0" fill="#2655ad"/>
  <path transform="rotate(-0.836219 151.237 599.663)" stroke="null" id="svg_136" d="m151.23747,557.9867c27.85928,0 50.4434,18.65947 50.4434,41.67636c0,7.86554 -2.66991,15.21346 -7.2641,21.48777l7.2641,17.54368l-20.22409,-5.72021c-8.42761,5.22799 -18.86952,8.36368 -30.21931,8.36368c-27.85931,0 -50.44341,-18.65949 -50.44341,-41.67492c0,-23.01689 22.5841,-41.67637 50.44341,-41.67637l0,0.00001z" fill="#fc246c"/>
  <path stroke="#000000" stroke-opacity="0" id="svg_138" d="m80.95315,596.09104l46.37473,0l0,0c6.07522,0 11.00015,6.99062 11.00015,15.61399c0,8.62337 -4.92493,15.61398 -11.00015,15.61398l-46.37473,0l0,0c-6.07521,0 -11.00015,-6.99062 -11.00015,-15.61398c0,-8.62337 4.92494,-15.61399 11.00015,-15.61399z" fill="#ffffff"/>
  <path transform="rotate(-0.836219 357.316 600.555)" stroke="null" id="svg_139" d="m357.3163,558.87915c27.85928,0 50.4434,18.65947 50.4434,41.67636c0,7.86554 -2.66991,15.21346 -7.2641,21.48777l7.2641,17.54368l-20.22409,-5.72021c-8.42761,5.22799 -18.86952,8.36368 -30.21931,8.36368c-27.85931,0 -50.44341,-18.65949 -50.44341,-41.67492c0,-23.01689 22.5841,-41.67637 50.44341,-41.67637l0,0.00001z" fill="#fc246c"/>
  <path stroke="null" id="svg_140" d="m287.76804,596.1063l45.77978,0l0,0c5.99728,0 10.85902,7.38336 10.85902,16.49118c0,9.10783 -4.86175,16.49118 -10.85902,16.49118l-45.77978,0l0,0c-5.99727,0 -10.85903,-7.38335 -10.85903,-16.49118c0,-9.10783 4.86176,-16.49118 10.85903,-16.49118z" stroke-width="0" fill="#2655ad"/>
  <rect stroke="null" id="svg_141" height="109.5649" width="203.47777" y="541.47031" x="438.22553" stroke-width="0" fill="#fc246c"/>
  <path transform="rotate(-0.836219 578.177 594.437)" stroke="null" id="svg_142" d="m578.1777,552.76169c27.85928,0 50.4434,18.65947 50.4434,41.67636c0,7.86554 -2.66991,15.21346 -7.2641,21.48777l7.2641,17.54368l-20.22409,-5.72021c-8.42761,5.22799 -18.86952,8.36368 -30.21931,8.36368c-27.85931,0 -50.44341,-18.65949 -50.44341,-41.67492c0,-23.01689 22.5841,-41.67637 50.44341,-41.67637l0,0.00001z" fill="#2655ad"/>
  <path stroke="null" id="svg_143" d="m500.422,591.74322l48.15956,0l0,0c6.30904,0 11.42351,7.57973 11.42351,16.92979c0,9.35006 -5.11448,16.92978 -11.42351,16.92978l-48.15956,0l0,0c-6.30903,0 -11.42352,-7.57972 -11.42352,-16.92978c0,-9.35006 5.11449,-16.92979 11.42352,-16.92979z" stroke-width="0" fill="#ffffff"/>
  <rect stroke="null" id="svg_144" height="109.5649" width="203.47777" y="544.10188" x="654.89218" stroke-width="0" fill="#000000"/>
  <path transform="rotate(-0.836219 797.476 595.315)" stroke="null" id="svg_145" d="m797.47592,553.63888c27.85928,0 50.4434,18.65947 50.4434,41.67636c0,7.86554 -2.66991,15.21346 -7.2641,21.48777l7.2641,17.54368l-20.22409,-5.72021c-8.42761,5.22799 -18.86952,8.36368 -30.21931,8.36368c-27.85931,0 -50.44341,-18.65949 -50.44341,-41.67492c0,-23.01689 22.5841,-41.67637 50.44341,-41.67637l0,0.00001z" fill="#fc246c"/>
  <path stroke="null" id="svg_146" d="m725.15496,594.3748l45.18482,0l0,0c5.91934,0 10.7179,7.38336 10.7179,16.49119c0,9.10783 -4.79856,16.49118 -10.7179,16.49118l-45.18482,0l0,0c-5.91933,0 -10.71791,-7.38335 -10.71791,-16.49118c0,-9.10783 4.79858,-16.49119 10.71791,-16.49119z" stroke-width="0" fill="#2655ad"/>
 </g>
</svg>